<?xml version="1.0" encoding="utf-8"?>
<!-- Generator: Adobe Illustrator 21.0.2, SVG Export Plug-In . SVG Version: 6.00 Build 0)  -->
<svg version="1.1" xmlns="http://www.w3.org/2000/svg" xmlns:xlink="http://www.w3.org/1999/xlink" x="0px" y="0px"
	 viewBox="0 0 463 463" style="enable-background:new 0 0 463 463;" xml:space="preserve">
<style type="text/css">
	.st0{display:none;}
	.st1{display:inline;}
	.st2{display:inline;fill:none;stroke:#00B8B2;stroke-width:20;stroke-miterlimit:10;}
	.st3{fill:none;stroke:#000000;stroke-width:8;stroke-miterlimit:10;}
</style>
<g id="Layer_1" class="st0">
	<g id="Layer_1_1_">
		<g class="st1">
			<g>
				<path d="M455.2,286.9c-8.2-15.1-16.9-30.1-26-44.8c1.9-1.6,3.7-3.3,5.6-4.9c4.2-3.6,6.7-8.5,7.1-13.9c0.4-5.7-1.6-11.4-5.5-16
					c-14.4-16.5-46.1-46.1-98.6-60.6c0.7-8.5-4.3-16.9-12.9-21.3c-27.8-14-60-21.4-93.2-21.4c-0.1,0-0.2,0-0.2,0
					c-33.2,0-65.4,7.4-93.2,21.4c-8.6,4.3-13.6,12.8-12.9,21.3c-52.5,14.5-84.3,44.1-98.6,60.6c-4,4.6-6,10.3-5.5,16
					c0.4,5.4,2.9,10.3,7.1,13.9c1.9,1.6,3.7,3.3,5.6,4.9c-9.1,14.7-17.8,29.7-26,44.8C0.1,301.1-2,317.5,2,333
					c3.1,11.5,11.3,20.3,22.4,24.1c3.7,1.3,7.5,1.9,11.3,1.9c7.8,0,15.6-2.6,22.1-7.5c16.6-12.7,34-24.8,51.7-36.1
					c3.4,2,7.2,3,11.1,3c3,0,6.1-0.6,9-1.9c11.4-5,23-9.7,34.6-14.2c4.2,3.4,9.7,5.4,15.5,5l0,0c34.3-2.4,69.2-2.4,103.5,0
					c0.5,0,1,0.1,1.5,0.1c5.2,0,10.2-1.9,14-5c11.6,4.4,23.2,9.2,34.6,14.1c2.9,1.3,6,1.9,9,1.9c3.9,0,7.7-1,11.1-3
					c17.7,11.3,35,23.5,51.7,36.1c6.5,5,14.3,7.5,22.1,7.5c3.8,0,7.7-0.6,11.3-1.9c11.1-3.8,19.3-12.6,22.4-24.2
					C465,317.5,462.9,301.1,455.2,286.9z M48.8,339.5c-5.8,4.4-12.9,5.6-19.5,3.4c-6.3-2.2-11-7.2-12.8-13.7
					c-3-11.8-1.5-24.3,4.5-35.2c7.6-14,15.8-28.1,24.2-41.8c18.5,16.8,36.3,34.3,53.2,52.4C81.4,315.6,64.8,327.3,48.8,339.5z
					 M123.6,302.7c-2.8,1.2-6.1,0.6-8.1-1.6l-0.1-0.1l0,0c-20.9-22.9-43.2-44.9-66.6-65.7c-0.1-0.1-0.1-0.1-0.2-0.2
					c-3.5-3.1-7.1-6.2-10.6-9.3c-1.1-1-1.8-2.2-1.9-3.6c-0.1-1.7,0.6-3.5,1.9-5c13.2-15.2,42.3-42.3,90.5-55.8
					c10,42.3,19.4,85.2,28,127.8C145.4,293.4,134.4,297.9,123.6,302.7z M291.7,286.8c-0.7,3.4-3.9,5.7-7.4,5.5
					c-17.5-1.2-35.2-1.8-52.8-1.8s-35.3,0.6-52.8,1.8c-3.6,0.2-6.7-2.1-7.4-5.5c-9.4-46.9-19.8-94.2-31-140.6
					c-0.6-2.7,1.2-5.6,4.6-7.3c25.7-13,55.6-19.8,86.4-19.8c0.1,0,0.1,0,0.2,0c30.9,0,60.8,6.9,86.5,19.8c3.4,1.7,5.3,4.7,4.6,7.3
					C311.5,192.6,301.1,239.9,291.7,286.8z M347.5,301.1c-2,2.2-5.2,2.8-8.1,1.6c-10.8-4.7-21.9-9.3-32.9-13.5
					c8.5-42.5,17.9-85.5,28-127.8c48.3,13.5,77.4,40.6,90.5,55.8c1.4,1.6,2,3.3,1.9,5c-0.1,1.4-0.8,2.7-1.9,3.6
					c-3.6,3.1-7.1,6.2-10.6,9.3l-0.1,0.1C390.8,256.1,368.4,278.2,347.5,301.1z M446.5,329.1c-1.8,6.6-6.4,11.6-12.8,13.8
					c-6.6,2.3-13.7,1-19.5-3.4c-16-12.2-32.6-23.9-49.6-34.9c16.9-18.1,34.7-35.7,53.2-52.4C426.2,266,434.4,280,442,294
					C447.9,304.9,449.5,317.4,446.5,329.1z"/>
			</g>
		</g>
	</g>
	<circle class="st2" cx="105.9" cy="17.6" r="0"/>
	<g id="D6QHtw_1_" class="st1">
		
			<image style="overflow:visible;" width="450" height="470" id="D6QHtw" xlink:href="9EF89075E65BDC07.jpg"  transform="matrix(1 0 0 1 6.5 -3.5)">
		</image>
	</g>
</g>
<g id="Layer_2">
	<path class="st3" d="M185.8,140.5"/>
	<path class="st3" d="M134.2,153.2c0,0,19.4,18.6,41.2-0.6c1.9-1.7,3.9-3.7,5.9-6.1c1.5-1.8,3-3.8,4.6-6.1c1.9-2.8,4.1-5.7,6.3-8.6
		c17.5-22.1,43.3-44.4,43.3-44.4c-6.9,25-9.3,74.9-17.7,98.4c-8.4,23.5-33.6,38.7-71.4,30.2s-56.4-58.8-26.9-85.7
		s26.9-54.6,26.9-54.6s49.6,36.8,45.8,56.1"/>
	<path class="st3" d="M164.3,92.2c0,0,33.3-12.2,33.3-25.7c0,0,13.2,9.8,13.8,41.9"/>
	<path class="st3" d="M159.7,235.3c0,0,31.8,98.3-3.9,176.3"/>
	<path class="st3" d="M243.5,279.6c0,0-149.3,48.2-182.1,144.5"/>
	<path class="st3" d="M193.4,279.6c0,0,46.9-89.2,79.3-116.8"/>
	<path class="st3" d="M152.5,304.7c0,0,14-43.4-38.1-78C114.4,226.6,108.6,284.4,152.5,304.7z"/>
	<path class="st3" d="M133.2,315.3c0,0-20.9-16.8-45.3,1C87.9,316.3,110.8,339.5,133.2,315.3z"/>
	<path class="st3" d="M187.2,323.5c0,0,2,37,48.2,36.5C235.5,360,232.7,326.4,187.2,323.5z"/>
	<path class="st3" d="M317.2,178.2c0,0-52.7,28.5-59.3,59.5s9.3,52.7,34.3,51.2c25-1.6,80.4-29.3,87.3-46.3
		c6.9-17,7.5-30.6-10.1-50.4s-31.4-12.9-34.7,1.3s14.9,50,28.4,43.4c13.5-6.6,6.6-29.3-10.9-36.4"/>
	<path class="st3" d="M155.8,341.7c0,0-36.6,57.2-41.7,73.9"/>
	<path class="st3" d="M302.1,103.3c1.1-17.6,1.5-37.9,1.9-59.5c0,0-70.1,104.3-35.7,117.1"/>
	<path class="st3" d="M285.3,166.7c19.8,6.2,54.9-28.8,96.9-68.9c0,0-24.5,4.8-50.4,13.1"/>
	<path class="st3" d="M352.3,68.9c0,0-106.9,66-80.9,91.9S321.3,133.2,352.3,68.9z"/>
	<path class="st3" d="M119.5,130.4"/>
</g>
</svg>
